<?xml version="1.0" encoding="UTF-8"?>
<svg xmlns="http://www.w3.org/2000/svg" width="760" height="420" viewBox="0 0 760 420">
<style>
  .axis { stroke: #111; stroke-width: 1; }
  .grid { stroke: #ddd; stroke-width: 1; }
  .label { fill: #111; font: 12px ui-monospace, SFMono-Regular, Menlo, Monaco, Consolas, monospace; }
  .title { fill: #111; font: 14px ui-monospace, SFMono-Regular, Menlo, Monaco, Consolas, monospace; font-weight: 700; }
  .legend { fill: #111; font: 12px ui-monospace, SFMono-Regular, Menlo, Monaco, Consolas, monospace; }
</style>
<text class="title" x="70" y="22">拓扑收敛时间（Trace 回放，均值±标准差）</text>
<line class="grid" x1="70" y1="360" x2="740" y2="360"/>
<text class="label" x="60" y="364" text-anchor="end">0.0s</text>
<line class="grid" x1="70" y1="296" x2="740" y2="296"/>
<text class="label" x="60" y="300" text-anchor="end">1.0s</text>
<line class="grid" x1="70" y1="232" x2="740" y2="232"/>
<text class="label" x="60" y="236" text-anchor="end">2.0s</text>
<line class="grid" x1="70" y1="168" x2="740" y2="168"/>
<text class="label" x="60" y="172" text-anchor="end">3.0s</text>
<line class="grid" x1="70" y1="104" x2="740" y2="104"/>
<text class="label" x="60" y="108" text-anchor="end">4.0s</text>
<line class="grid" x1="70" y1="40" x2="740" y2="40"/>
<text class="label" x="60" y="44" text-anchor="end">5.0s</text>
<line class="axis" x1="70" y1="40" x2="70" y2="360"/>
<line class="axis" x1="70" y1="360" x2="740" y2="360"/>
<line class="grid" x1="70" y1="40" x2="70" y2="360"/>
<text class="label" x="70" y="382" text-anchor="middle">4</text>
<line class="grid" x1="405" y1="40" x2="405" y2="360"/>
<text class="label" x="405" y="382" text-anchor="middle">6</text>
<line class="grid" x1="740" y1="40" x2="740" y2="360"/>
<text class="label" x="740" y="382" text-anchor="middle">8</text>
<text class="label" x="405" y="400" text-anchor="middle">节点数（包含 root）</text>
<text class="label" x="18" y="200" transform="rotate(-90 18 200)" text-anchor="middle">收敛时间（秒）</text>
<polyline fill="none" stroke="#ff7f0e" stroke-width="2" points="70,239 405,161 740,82"/>
<line stroke="#ff7f0e" stroke-width="1.5" x1="70" y1="239" x2="70" y2="239"/>
<line stroke="#ff7f0e" stroke-width="1.5" x1="64" y1="239" x2="76" y2="239"/>
<line stroke="#ff7f0e" stroke-width="1.5" x1="64" y1="239" x2="76" y2="239"/>
<circle cx="70" cy="239" r="4" fill="#ff7f0e"/>
<line stroke="#ff7f0e" stroke-width="1.5" x1="405" y1="161" x2="405" y2="160"/>
<line stroke="#ff7f0e" stroke-width="1.5" x1="399" y1="161" x2="411" y2="161"/>
<line stroke="#ff7f0e" stroke-width="1.5" x1="399" y1="160" x2="411" y2="160"/>
<circle cx="405" cy="161" r="4" fill="#ff7f0e"/>
<line stroke="#ff7f0e" stroke-width="1.5" x1="740" y1="82" x2="740" y2="82"/>
<line stroke="#ff7f0e" stroke-width="1.5" x1="734" y1="82" x2="746" y2="82"/>
<line stroke="#ff7f0e" stroke-width="1.5" x1="734" y1="82" x2="746" y2="82"/>
<circle cx="740" cy="82" r="4" fill="#ff7f0e"/>
<polyline fill="none" stroke="#1f77b4" stroke-width="2" points="70,254 405,200 740,141"/>
<line stroke="#1f77b4" stroke-width="1.5" x1="70" y1="262" x2="70" y2="247"/>
<line stroke="#1f77b4" stroke-width="1.5" x1="64" y1="262" x2="76" y2="262"/>
<line stroke="#1f77b4" stroke-width="1.5" x1="64" y1="247" x2="76" y2="247"/>
<circle cx="70" cy="254" r="4" fill="#1f77b4"/>
<line stroke="#1f77b4" stroke-width="1.5" x1="405" y1="200" x2="405" y2="200"/>
<line stroke="#1f77b4" stroke-width="1.5" x1="399" y1="200" x2="411" y2="200"/>
<line stroke="#1f77b4" stroke-width="1.5" x1="399" y1="200" x2="411" y2="200"/>
<circle cx="405" cy="200" r="4" fill="#1f77b4"/>
<line stroke="#1f77b4" stroke-width="1.5" x1="740" y1="142" x2="740" y2="141"/>
<line stroke="#1f77b4" stroke-width="1.5" x1="734" y1="142" x2="746" y2="142"/>
<line stroke="#1f77b4" stroke-width="1.5" x1="734" y1="141" x2="746" y2="141"/>
<circle cx="740" cy="141" r="4" fill="#1f77b4"/>
<rect x="580" y="50" width="150" height="54" fill="#fff" stroke="#ccc"/>
<line x1="590" y1="64" x2="614" y2="64" stroke="#ff7f0e" stroke-width="2"/>
<circle cx="602" cy="64" r="4" fill="#ff7f0e"/>
<text class="legend" x="624" y="68" text-anchor="start">chain</text>
<line x1="590" y1="82" x2="614" y2="82" stroke="#1f77b4" stroke-width="2"/>
<circle cx="602" cy="82" r="4" fill="#1f77b4"/>
<text class="legend" x="624" y="86" text-anchor="start">star</text>
</svg>
