<?xml version="1.0" encoding="UTF-8"?>
<svg xmlns="http://www.w3.org/2000/svg" width="760" height="420" viewBox="0 0 760 420">
<style>
  .axis { stroke: #111; stroke-width: 1; }
  .grid { stroke: #ddd; stroke-width: 1; }
  .label { fill: #111; font: 12px ui-monospace, SFMono-Regular, Menlo, Monaco, Consolas, monospace; }
  .title { fill: #111; font: 14px ui-monospace, SFMono-Regular, Menlo, Monaco, Consolas, monospace; font-weight: 700; }
  .legend { fill: #111; font: 12px ui-monospace, SFMono-Regular, Menlo, Monaco, Consolas, monospace; }
</style>
<text class="title" x="70" y="22">DTN 交付时延 vs Duty-Cycle（链式拓扑，均值±标准差）</text>
<line class="grid" x1="70" y1="350" x2="740" y2="350"/>
<text class="label" x="60" y="354" text-anchor="end">0.0s</text>
<line class="grid" x1="70" y1="288" x2="740" y2="288"/>
<text class="label" x="60" y="292" text-anchor="end">2.3s</text>
<line class="grid" x1="70" y1="226" x2="740" y2="226"/>
<text class="label" x="60" y="230" text-anchor="end">4.5s</text>
<line class="grid" x1="70" y1="164" x2="740" y2="164"/>
<text class="label" x="60" y="168" text-anchor="end">6.8s</text>
<line class="grid" x1="70" y1="102" x2="740" y2="102"/>
<text class="label" x="60" y="106" text-anchor="end">9.0s</text>
<line class="grid" x1="70" y1="40" x2="740" y2="40"/>
<text class="label" x="60" y="44" text-anchor="end">11.3s</text>
<line class="axis" x1="70" y1="40" x2="70" y2="350"/>
<line class="axis" x1="70" y1="350" x2="740" y2="350"/>
<text class="label" x="405" y="396" text-anchor="middle">目标节点 sleep_seconds（秒）</text>
<text class="label" x="18" y="195" transform="rotate(-90 18 195)" text-anchor="middle">平均交付时延（秒）</text>
<rect x="121" y="272" width="123" height="78" fill="#2ca02c" opacity="0.85"/>
<line stroke="#1b5e20" stroke-width="1.5" x1="182" y1="276" x2="182" y2="269"/>
<line stroke="#1b5e20" stroke-width="1.5" x1="176" y1="276" x2="188" y2="276"/>
<line stroke="#1b5e20" stroke-width="1.5" x1="176" y1="269" x2="188" y2="269"/>
<text class="label" x="182" y="372" text-anchor="middle">0</text>
<rect x="344" y="202" width="123" height="148" fill="#2ca02c" opacity="0.85"/>
<line stroke="#1b5e20" stroke-width="1.5" x1="405" y1="202" x2="405" y2="201"/>
<line stroke="#1b5e20" stroke-width="1.5" x1="399" y1="202" x2="411" y2="202"/>
<line stroke="#1b5e20" stroke-width="1.5" x1="399" y1="201" x2="411" y2="201"/>
<text class="label" x="405" y="372" text-anchor="middle">8</text>
<rect x="567" y="92" width="123" height="258" fill="#2ca02c" opacity="0.85"/>
<text class="label" x="628" y="372" text-anchor="middle">16</text>
<polyline fill="none" stroke="#d62728" stroke-width="2" points="182,350 405,262 628,155"/>
<circle cx="182" cy="350" r="4" fill="#d62728"/>
<circle cx="405" cy="262" r="4" fill="#d62728"/>
<circle cx="628" cy="155" r="4" fill="#d62728"/>
<rect x="520" y="50" width="210" height="54" fill="#fff" stroke="#ccc"/>
<rect x="530" y="64" width="18" height="10" fill="#2ca02c" opacity="0.85"/>
<text class="legend" x="556" y="74" text-anchor="start">测量均值（±标准差）</text>
<line x1="530" y1="90" x2="548" y2="90" stroke="#d62728" stroke-width="2"/>
<circle cx="539" cy="90" r="4" fill="#d62728"/>
<text class="legend" x="556" y="94" text-anchor="start">理论期望 E[T_w]</text>
</svg>
